<svg width="29" height="61" viewBox="0 0 29 61" fill="none" xmlns="http://www.w3.org/2000/svg">
<g filter="url(#filter0_d_1219_2)">
<path fill-rule="evenodd" clip-rule="evenodd" d="M5 24.8002C5 9.34109 11.7771 1.00066 14.5486 1C17.3204 1.00066 24.0971 9.34057 24.0971 24.8002C24.0971 40.4202 18.1683 51.0094 17.9166 51.4526L17.6713 51.8835H11.4258L11.1806 51.4526C10.9289 51.0093 5 40.4202 5 24.8002ZM13.6808 3.17904V3.17896L13.681 3.17891L13.6808 3.17904ZM13.6808 3.17904V28.9042H15.4169V3.17896C17.6392 5.05427 22.3614 11.8766 22.3614 24.8005C22.3614 29.1132 21.8818 33.0485 21.1982 36.4852C20.1934 35.1331 18.3466 33.2927 14.9809 31.4748C6.79761 27.0532 6.89706 20.9818 6.90372 20.7255H6.90155C7.75442 10.424 11.706 4.84741 13.6808 3.17904ZM6.76472 26.1178L6.76494 26.1182C6.78881 27.1338 6.83222 28.1309 6.906 29.1034C7.05767 30.2317 8.14044 35.831 14.996 39.6904C17.2725 40.9728 18.5616 42.4788 19.2929 43.7037C19.7594 42.3002 20.226 40.706 20.6514 38.9497L20.6512 38.949C20.6272 38.8742 19.6759 35.9039 14.1192 32.9009C10.209 30.7877 8.00631 28.2991 6.76494 26.1182L6.76494 26.1181L6.76472 26.1178ZM15.4168 50.2426H16.6169L16.6167 50.2423C16.9618 49.5693 17.6606 48.1289 18.4548 46.0566C18.2856 45.3734 17.4739 42.9954 14.1059 41.0996C11.0439 39.3742 9.03006 37.3204 7.69978 35.3958C9.12122 43.2689 11.6994 48.7202 12.4806 50.2426H13.6807V44.4974H15.4168V50.2426Z" fill="white"/>
<path d="M14.5486 1L14.5486 0.875L14.5485 0.875L14.5486 1ZM17.9166 51.4526L18.0252 51.5144L18.0253 51.5143L17.9166 51.4526ZM17.6713 51.8835V52.0085H17.744L17.78 51.9453L17.6713 51.8835ZM11.4258 51.8835L11.3171 51.9453L11.3531 52.0085H11.4258V51.8835ZM11.1806 51.4526L11.0719 51.5143L11.0719 51.5144L11.1806 51.4526ZM13.6808 3.17896L13.6426 3.05996L13.5558 3.08786V3.17896H13.6808ZM13.681 3.17891L13.7617 3.27438L13.6427 3.05991L13.681 3.17891ZM13.6808 28.9042H13.5558V29.0292H13.6808V28.9042ZM15.4169 28.9042V29.0292H15.5419V28.9042H15.4169ZM15.4169 3.17896L15.4976 3.08343L15.2919 2.90991V3.17896H15.4169ZM21.1982 36.4852L21.0978 36.5598L21.2658 36.7858L21.3208 36.5096L21.1982 36.4852ZM14.9809 31.4748L14.9215 31.5848L14.9215 31.5848L14.9809 31.4748ZM6.90372 20.7255L7.02868 20.7287L7.03202 20.6005H6.90372V20.7255ZM6.90155 20.7255L6.77698 20.7152L6.76578 20.8505H6.90155V20.7255ZM6.76472 26.1178L6.86767 26.0469L6.65611 26.1797L6.76472 26.1178ZM6.906 29.1034L6.78115 29.1129L6.78211 29.1201L6.906 29.1034ZM14.996 39.6904L15.0573 39.5815L15.0573 39.5815L14.996 39.6904ZM19.2929 43.7037L19.1856 43.7677L19.3254 44.002L19.4115 43.7431L19.2929 43.7037ZM20.6514 38.9497L20.7729 38.9791L20.7811 38.945L20.7704 38.9116L20.6514 38.9497ZM20.6512 38.949L20.7702 38.9109L20.7702 38.9109L20.6512 38.949ZM14.1192 32.9009L14.0597 33.0109L14.0597 33.0109L14.1192 32.9009ZM6.76494 26.1181L6.8899 26.1151L6.889 26.0779L6.86789 26.0472L6.76494 26.1181ZM16.6169 50.2426V50.3676H16.8378L16.7241 50.1783L16.6169 50.2426ZM15.4168 50.2426H15.2918V50.3676H15.4168V50.2426ZM16.6167 50.2423L16.5055 50.1852L16.4738 50.2471L16.5096 50.3066L16.6167 50.2423ZM18.4548 46.0566L18.5716 46.1014L18.5856 46.0647L18.5762 46.0266L18.4548 46.0566ZM14.1059 41.0996L14.0445 41.2085L14.0446 41.2085L14.1059 41.0996ZM7.69978 35.3958L7.8026 35.3248L7.57677 35.4181L7.69978 35.3958ZM12.4806 50.2426L12.3694 50.2997L12.4043 50.3676H12.4806V50.2426ZM13.6807 50.2426V50.3676H13.8057V50.2426H13.6807ZM13.6807 44.4974V44.3724H13.5557V44.4974H13.6807ZM15.4168 44.4974H15.5418V44.3724H15.4168V44.4974ZM14.5485 0.875C14.1724 0.875089 13.7416 1.01594 13.2804 1.28035C12.8179 1.5455 12.3172 1.9393 11.7991 2.45667C10.7627 3.4915 9.64847 5.02875 8.62353 7.04658C6.5732 11.0831 4.875 17.0526 4.875 24.8002H5.125C5.125 17.0887 6.81533 11.1584 8.84642 7.1598C9.86219 5.16004 10.9619 3.64586 11.9757 2.63358C12.4826 2.12739 12.9661 1.74871 13.4047 1.49723C13.8447 1.24501 14.2319 1.12508 14.5486 1.125L14.5485 0.875ZM24.2221 24.8002C24.2221 17.0524 22.524 11.0828 20.4737 7.04638C19.4488 5.02859 18.3346 3.49138 17.2982 2.45659C16.7801 1.93924 16.2794 1.54546 15.8168 1.28032C15.3556 1.01593 14.9248 0.875089 14.5486 0.875L14.5485 1.125C14.8653 1.12508 15.2526 1.245 15.6925 1.49721C16.1312 1.74868 16.6146 2.12734 17.1216 2.63351C18.1354 3.64575 19.2351 5.15987 20.2508 7.1596C22.2819 11.1582 23.9721 17.0885 23.9721 24.8002H24.2221ZM18.0253 51.5143C18.2824 51.0616 24.2221 40.4505 24.2221 24.8002H23.9721C23.9721 40.3899 18.0542 50.9572 17.8079 51.3909L18.0253 51.5143ZM17.78 51.9453L18.0252 51.5144L17.8079 51.3908L17.5627 51.8216L17.78 51.9453ZM11.4258 52.0085H17.6713V51.7585H11.4258V52.0085ZM11.0719 51.5144L11.3171 51.9453L11.5344 51.8216L11.2892 51.3908L11.0719 51.5144ZM4.875 24.8002C4.875 40.4505 10.8148 51.0615 11.0719 51.5143L11.2893 51.3909C11.043 50.9571 5.125 40.3899 5.125 24.8002H4.875ZM13.5558 3.17896V3.17904H13.8058V3.17896H13.5558ZM13.6427 3.05991L13.6426 3.05996L13.7191 3.29795L13.7193 3.2979L13.6427 3.05991ZM13.7615 3.27452L13.7617 3.27438L13.6003 3.08343L13.6002 3.08357L13.7615 3.27452ZM13.8058 28.9042V3.17904H13.5558V28.9042H13.8058ZM15.4169 28.7792H13.6808V29.0292H15.4169V28.7792ZM15.2919 3.17896V28.9042H15.5419V3.17896H15.2919ZM22.4864 24.8005C22.4864 11.8486 17.754 4.98763 15.4976 3.08343L15.3363 3.27449C17.5243 5.1209 22.2364 11.9046 22.2364 24.8005H22.4864ZM21.3208 36.5096C22.0058 33.066 22.4864 29.1225 22.4864 24.8005H22.2364C22.2364 29.104 21.7578 33.031 21.0756 36.4608L21.3208 36.5096ZM14.9215 31.5848C18.2726 33.3948 20.1049 35.2236 21.0978 36.5598L21.2985 36.4107C20.2819 35.0427 18.4207 33.1906 15.0403 31.3648L14.9215 31.5848ZM6.77876 20.7222C6.77132 21.0086 6.68363 27.1337 14.9215 31.5848L15.0404 31.3648C6.91159 26.9727 7.02279 20.955 7.02868 20.7287L6.77876 20.7222ZM6.90155 20.8505H6.90372V20.6005H6.90155V20.8505ZM13.6002 3.08356C11.5945 4.77795 7.63194 10.3884 6.77698 20.7152L7.02613 20.7358C7.8769 10.4596 11.8175 4.91688 13.7615 3.27453L13.6002 3.08356ZM6.87355 26.0563L6.87334 26.0559L6.65611 26.1797L6.65633 26.18L6.87355 26.0563ZM6.63998 26.1211C6.66388 27.1383 6.70737 28.1377 6.78136 29.1129L7.03064 29.094C6.95706 28.1241 6.91374 27.1293 6.88991 26.1152L6.63998 26.1211ZM6.78211 29.1201C6.93686 30.2712 8.03299 35.914 14.9347 39.7993L15.0573 39.5815C8.2479 35.7481 7.17848 30.1921 7.02989 29.0868L6.78211 29.1201ZM14.9347 39.7993C17.1912 41.0704 18.4648 42.5606 19.1856 43.7677L19.4002 43.6396C18.6583 42.397 17.3538 40.8751 15.0573 39.5815L14.9347 39.7993ZM19.4115 43.7431C19.8791 42.3365 20.3467 40.739 20.7729 38.9791L20.5299 38.9203C20.1054 40.6731 19.6398 42.264 19.1743 43.6642L19.4115 43.7431ZM20.7704 38.9116L20.7702 38.9109L20.5321 38.9871L20.5323 38.9878L20.7704 38.9116ZM20.7702 38.9109C20.7364 38.8053 19.7637 35.8093 14.1786 32.7909L14.0597 33.0109C19.588 35.9985 20.518 38.9431 20.5321 38.9871L20.7702 38.9109ZM14.1786 32.7909C10.2883 30.6885 8.10302 28.2163 6.87358 26.0563L6.65631 26.18C7.90961 28.3819 10.1296 30.8869 14.0597 33.0109L14.1786 32.7909ZM6.63998 26.1211L6.63998 26.1212L6.8899 26.1151L6.8899 26.1151L6.63998 26.1211ZM6.66177 26.1887L6.66199 26.189L6.86789 26.0472L6.86767 26.0469L6.66177 26.1887ZM16.6169 50.1176H15.4168V50.3676H16.6169V50.1176ZM16.5096 50.3066L16.5098 50.307L16.7241 50.1783L16.7239 50.1779L16.5096 50.3066ZM18.3381 46.0119C17.5457 48.0794 16.8488 49.5157 16.5055 50.1852L16.728 50.2993C17.0748 49.6229 17.7755 48.1784 18.5716 46.1014L18.3381 46.0119ZM14.0446 41.2085C17.377 43.0843 18.1708 45.43 18.3335 46.0867L18.5762 46.0266C18.4003 45.3168 17.5709 42.9066 14.1672 40.9906L14.0446 41.2085ZM7.59695 35.4669C8.93752 37.4064 10.9653 39.4734 14.0445 41.2085L14.1673 40.9907C11.1225 39.275 9.12259 37.2345 7.8026 35.3248L7.59695 35.4669ZM12.5918 50.1856C11.8145 48.6707 9.24145 43.2312 7.82279 35.3736L7.57677 35.4181C9.001 43.3065 11.5843 48.7698 12.3694 50.2997L12.5918 50.1856ZM13.6807 50.1176H12.4806V50.3676H13.6807V50.1176ZM13.5557 44.4974V50.2426H13.8057V44.4974H13.5557ZM15.4168 44.3724H13.6807V44.6224H15.4168V44.3724ZM15.5418 50.2426V44.4974H15.2918V50.2426H15.5418Z" fill="black"/>
</g>
<defs>
<filter id="filter0_d_1219_2" x="0.875" y="0.875" width="27.3471" height="59.1334" filterUnits="userSpaceOnUse" color-interpolation-filters="sRGB">
<feFlood flood-opacity="0" result="BackgroundImageFix"/>
<feColorMatrix in="SourceAlpha" type="matrix" values="0 0 0 0 0 0 0 0 0 0 0 0 0 0 0 0 0 0 127 0" result="hardAlpha"/>
<feOffset dy="4"/>
<feGaussianBlur stdDeviation="2"/>
<feColorMatrix type="matrix" values="0 0 0 0 0 0 0 0 0 0 0 0 0 0 0 0 0 0 0.25 0"/>
<feBlend mode="normal" in2="BackgroundImageFix" result="effect1_dropShadow_1219_2"/>
<feBlend mode="normal" in="SourceGraphic" in2="effect1_dropShadow_1219_2" result="shape"/>
</filter>
</defs>
</svg>
