<svg width="60" height="50" viewBox="0 0 60 50" fill="none" xmlns="http://www.w3.org/2000/svg">
<g clip-path="url(#clip0_1220_2)">
<path fill-rule="evenodd" clip-rule="evenodd" d="M58.0637 46.6527C58.0547 46.6807 58.0433 46.7086 58.0297 46.7342L58.0302 46.7338C58.0166 46.7617 58.0029 46.7873 57.9757 46.8059C57.966 46.8215 57.9564 46.8354 57.9467 46.8491L57.9369 46.863L57.9281 46.8757C57.91 46.899 57.8895 46.9246 57.8691 46.9479C57.851 46.9665 57.8328 46.9851 57.8124 47.0037C57.7897 47.027 57.7648 47.0479 57.7398 47.0665C57.7307 47.0728 57.7206 47.0795 57.7102 47.0863C57.7038 47.0905 57.6973 47.0947 57.6908 47.0988C57.6844 47.1029 57.678 47.1069 57.6718 47.1107C57.6651 47.1142 57.6585 47.1178 57.652 47.1214L57.6271 47.1355C57.6153 47.1422 57.6032 47.1488 57.5902 47.1549C57.571 47.1647 57.5508 47.1723 57.5302 47.1799C57.5258 47.1815 57.5213 47.1832 57.5169 47.1849C57.5126 47.1865 57.5083 47.1881 57.504 47.1898C57.4979 47.1922 57.4921 47.1947 57.4863 47.1973L57.4863 47.1974C57.4747 47.2025 57.4631 47.2077 57.4495 47.2108C57.4476 47.2113 57.4457 47.2116 57.444 47.2117C57.4419 47.2119 57.4399 47.2119 57.4379 47.2119C57.4337 47.2119 57.4295 47.2119 57.4246 47.2131C57.3543 47.2317 57.2817 47.2434 57.2068 47.2434C57.1048 47.2434 57.0685 47.2596 57.0685 47.2596C57.0268 47.3092 56.951 47.5572 56.903 47.7144L56.903 47.7145L56.8984 47.7296C56.7215 48.3113 56.3518 49.5212 54.8571 49.5212C53.5786 49.5212 52.9435 48.6504 52.4789 48.0133L52.4756 48.0088C52.0401 47.4062 51.8745 47.2433 51.5479 47.2433C51.2213 47.2433 51.058 47.4061 50.6202 48.0064L50.617 48.0109C50.1523 48.648 49.5172 49.5188 48.2365 49.5188C46.958 49.5188 46.3229 48.648 45.8582 48.0109L45.8549 48.0064C45.4194 47.4062 45.2539 47.2433 44.9273 47.2433C44.6029 47.2433 44.4373 47.4062 43.9996 48.0088C43.5369 48.6463 42.8995 49.5212 41.6181 49.5212C40.3373 49.5212 39.7022 48.6504 39.2376 48.0133L39.2343 48.0088C38.7988 47.4085 38.6332 47.2457 38.3066 47.2457C37.98 47.2457 37.8167 47.4085 37.3789 48.0088C36.9162 48.6463 36.2811 49.5212 34.9974 49.5212C33.7189 49.5212 33.0839 48.6504 32.6192 48.0133L32.6159 48.0088C32.1804 47.4085 32.0148 47.2457 31.6882 47.2457C31.3639 47.2457 31.1983 47.4086 30.7606 48.0112C30.2979 48.6487 29.6605 49.5236 28.379 49.5236C27.1005 49.5236 26.4655 48.6528 26.0008 48.0157L25.9975 48.0112C25.562 47.4109 25.3964 47.2481 25.0698 47.2481C24.7455 47.2481 24.5799 47.411 24.1422 48.0136C23.6795 48.6511 23.0421 49.526 21.7606 49.526C21.3546 49.526 20.9849 49.3561 20.7241 49.049C20.0913 48.3091 20.2183 47.0481 20.4791 45.0517L20.4836 45.0172C20.5768 44.2949 20.7188 43.1934 20.6719 42.6575C18.9777 42.9971 16.5735 46.4804 15.3261 49.0142C15.1718 49.3306 14.8566 49.5261 14.5164 49.5261C14.4982 49.5261 14.4801 49.5261 14.4619 49.5238C14.1013 49.5028 13.786 49.2632 13.6636 48.9142C13.4549 48.3227 11.6722 43.0576 13.5252 40.1446C14.2192 39.0556 15.3442 38.4298 16.7822 38.3344C18.0319 38.2506 18.6035 37.9063 18.7123 37.634C18.7849 37.4525 18.6692 37.1431 18.4152 36.8476C17.7393 36.0589 16.2287 35.426 14.5095 35.9053C12.1256 36.5665 9.45387 39.8447 8.55343 43.2138C8.23814 44.3981 7.89789 46.5899 9.1862 47.9463C9.53548 48.3163 9.52641 48.9049 9.16805 49.2632C8.80742 49.6215 8.23589 49.6146 7.88434 49.2446C6.46223 47.7487 6.07892 45.4313 6.80244 42.723C7.739 39.2142 10.7013 35.0331 14.0354 34.1094C16.5189 33.4207 18.7076 34.37 19.7782 35.6195C20.5198 36.4827 20.7421 37.4762 20.3906 38.3464C20.0844 39.1026 19.2316 40.0379 16.9 40.1938C16.0313 40.252 15.4257 40.5707 15.0469 41.1641C14.2826 42.3646 14.4595 44.4936 14.8065 46.1921C16.1675 43.9514 18.5558 40.6964 21.028 40.7755C21.4272 40.7894 21.7878 40.9662 22.0418 41.2757C22.2959 41.5828 22.4206 41.9807 22.466 42.4739C24.1353 41.3409 26.5715 40.2194 31.3798 39.7214C26.1676 18.0598 35.9659 5.86554 36.4105 5.32807C36.4143 5.32418 36.4181 5.32111 36.4217 5.31817C36.4267 5.31407 36.4315 5.31022 36.4354 5.3048C36.4627 5.27455 36.4899 5.24896 36.5194 5.22337C36.5375 5.20475 36.5556 5.18846 36.5761 5.1745C36.6039 5.15545 36.6318 5.13951 36.6609 5.12286L36.6804 5.11168C36.6985 5.10005 36.7167 5.08841 36.7371 5.07911C36.7802 5.06049 36.8233 5.04653 36.8686 5.0349C36.8792 5.03335 36.8898 5.02973 36.9004 5.02611L36.9004 5.02611C36.9057 5.0243 36.911 5.02249 36.9163 5.02094C36.9775 5.00698 37.041 5 37.1068 5L37.2406 5.00465C37.5082 5.00465 37.76 5.12332 37.9324 5.33272C38.3769 5.8676 48.1274 17.9996 43.0084 39.5563C56.3944 40.3613 58.032 45.8407 58.0955 46.0804C58.0961 46.0828 58.0965 46.0854 58.0969 46.088L58.0978 46.0955C58.0983 46.1007 58.0989 46.106 58.1 46.1106L58.1136 46.2013C58.1182 46.2339 58.1227 46.2665 58.1227 46.2991C58.1227 46.3037 58.1233 46.3084 58.1239 46.313C58.1244 46.3177 58.125 46.3223 58.125 46.327C58.125 46.3456 58.1227 46.3619 58.1204 46.3805L58.1202 46.3837L58.1202 46.3838C58.118 46.4154 58.1157 46.4491 58.1091 46.4806C58.1067 46.4956 58.1036 46.5106 58.1002 46.5257C58.0972 46.5386 58.0941 46.5514 58.091 46.5643C58.0894 46.5695 58.0879 46.5747 58.0865 46.5799C58.0853 46.5839 58.0842 46.5879 58.0831 46.5919C58.0773 46.6128 58.0716 46.6333 58.0637 46.6527ZM38.0135 42.4227H40.3588C45.5234 25.0962 40.6649 13.4159 38.0135 8.77869V42.4227ZM36.1991 9.02289V42.4227H33.9877C28.923 25.4333 33.5273 13.8273 36.1991 9.02289ZM55.1718 47.2006L55.1764 47.1855L55.1757 47.1856C55.2823 46.8366 55.4637 46.2642 55.9106 45.8617C54.9061 44.5587 51.7376 41.883 42.5404 41.3967C42.3408 42.1343 42.1253 42.8812 41.8894 43.6397C41.7692 44.0259 41.4199 44.2888 41.0253 44.2888H33.3185C32.9239 44.2888 32.5746 44.0259 32.4544 43.6397C32.2366 42.9323 32.037 42.2366 31.8488 41.5503C26.0174 42.1133 23.9308 43.6141 22.3363 44.8798C22.3292 44.9343 22.3225 44.9885 22.3157 45.0432C22.305 45.1284 22.2943 45.2148 22.2819 45.3056C22.1934 45.985 22.0573 47.032 22.0845 47.5904C22.2501 47.4903 22.418 47.2856 22.6901 46.9087L22.6934 46.9042C23.1581 46.2671 23.7932 45.3963 25.0739 45.3963C26.3524 45.3963 26.9875 46.2671 27.4522 46.9042L27.4554 46.9087C27.8909 47.5089 28.0565 47.6718 28.3831 47.6718C28.7097 47.6718 28.873 47.509 29.3108 46.9087L29.314 46.9042C29.7787 46.2671 30.4138 45.3963 31.6946 45.3963C32.9731 45.3963 33.6081 46.2671 34.0728 46.9042L34.0761 46.9087C34.5139 47.5089 34.6794 47.6718 35.0038 47.6718C35.3304 47.6718 35.4937 47.509 35.9314 46.9087C36.3941 46.2712 37.0292 45.3963 38.313 45.3963C39.5915 45.3963 40.2265 46.2671 40.6912 46.9042L40.6945 46.9087C41.1322 47.5113 41.2978 47.6742 41.6244 47.6742C41.951 47.6742 42.1143 47.5113 42.5521 46.9111L42.5553 46.9066C43.02 46.2695 43.6551 45.3987 44.9359 45.3987C46.2144 45.3987 46.8494 46.2694 47.3141 46.9066L47.3174 46.9111C47.7529 47.5113 47.9185 47.6742 48.2451 47.6742C48.5717 47.6742 48.7373 47.5113 49.175 46.9087C49.6377 46.2712 50.2751 45.3963 51.5565 45.3963C52.8373 45.3963 53.4724 46.2671 53.937 46.9042L53.9403 46.9087C54.3781 47.5089 54.5436 47.6718 54.868 47.6718C54.97 47.6718 55.0063 47.6555 55.0063 47.6555C55.0481 47.6059 55.1238 47.3578 55.1718 47.2006Z" fill="white"/>
<path d="M58.0297 46.7342L57.5883 46.4994L58.3501 47.118L58.0297 46.7342ZM58.0637 46.6527L57.6005 46.4646L57.5938 46.4812L57.5882 46.4982L58.0637 46.6527ZM58.0302 46.7338L58.4796 46.9529L57.7097 46.35L58.0302 46.7338ZM57.9757 46.8059L57.6935 46.3932L57.6064 46.4528L57.5508 46.5424L57.9757 46.8059ZM57.9467 46.8491L57.5381 46.561L57.538 46.5611L57.9467 46.8491ZM57.9369 46.863L57.5282 46.575L57.5259 46.5783L57.9369 46.863ZM57.9281 46.8757L58.3223 47.1833L58.331 47.1721L58.3391 47.1605L57.9281 46.8757ZM57.8691 46.9479L58.2272 47.2969L58.2363 47.2875L58.245 47.2776L57.8691 46.9479ZM57.8124 47.0037L57.4755 46.6343L57.4647 46.6442L57.4544 46.6547L57.8124 47.0037ZM57.7398 47.0665L58.0221 47.4792L58.0306 47.4734L58.0388 47.4673L57.7398 47.0665ZM57.7102 47.0863L57.9837 47.5049L57.9838 47.5048L57.7102 47.0863ZM57.6908 47.0988L57.959 47.5208L57.9591 47.5207L57.6908 47.0988ZM57.6718 47.1107L57.9 47.5556L57.9173 47.5467L57.9339 47.5365L57.6718 47.1107ZM57.652 47.1214L57.4078 46.6851L57.4055 46.6864L57.652 47.1214ZM57.6271 47.1355L57.8726 47.5711L57.8736 47.5705L57.6271 47.1355ZM57.5902 47.1549L57.3761 46.7031L57.369 46.7064L57.362 46.71L57.5902 47.1549ZM57.5302 47.1799L57.3563 46.7111L57.3561 46.7112L57.5302 47.1799ZM57.5169 47.1849L57.6933 47.6527L57.6934 47.6527L57.5169 47.1849ZM57.504 47.1898L57.6837 47.6564L57.6873 47.655L57.504 47.1898ZM57.4863 47.1973L57.2827 46.7407L57.2726 46.7452L57.2627 46.7501L57.4863 47.1973ZM57.4863 47.1974L57.6898 47.6541L57.7 47.6495L57.7099 47.6446L57.4863 47.1974ZM57.4495 47.2108L57.3383 46.7231L57.3251 46.7265L57.4495 47.2108ZM57.444 47.2117L57.489 47.7097L57.4898 47.7096L57.444 47.2117ZM57.4379 47.2119L57.4388 47.7119L57.4389 47.7119L57.4379 47.2119ZM57.4246 47.2131L57.3005 46.7287L57.2966 46.7298L57.4246 47.2131ZM57.0685 47.2596L56.8638 46.8035L56.7596 46.8502L56.686 46.9376L57.0685 47.2596ZM56.903 47.7144L57.3673 47.9001L57.3751 47.8806L57.3812 47.8604L56.903 47.7144ZM56.903 47.7145L56.4388 47.5288L56.431 47.5484L56.4248 47.5685L56.903 47.7145ZM56.8984 47.7296L56.4202 47.5836L56.42 47.5841L56.8984 47.7296ZM52.4789 48.0133L52.8829 47.7187L52.8828 47.7186L52.4789 48.0133ZM52.4756 48.0088L52.0703 48.3017L52.0717 48.3035L52.4756 48.0088ZM50.6202 48.0064L50.2163 47.7118L50.2162 47.7119L50.6202 48.0064ZM50.617 48.0109L51.021 48.3055L51.0211 48.3053L50.617 48.0109ZM45.8582 48.0109L45.4542 48.3054L45.4542 48.3055L45.8582 48.0109ZM45.8549 48.0064L45.4502 48.3L45.4509 48.301L45.8549 48.0064ZM43.9996 48.0088L43.5951 47.7149L43.5949 47.7151L43.9996 48.0088ZM39.2376 48.0133L39.6415 47.7187L39.6415 47.7186L39.2376 48.0133ZM39.2343 48.0088L38.8296 48.3024L38.8304 48.3035L39.2343 48.0088ZM37.3789 48.0088L36.975 47.7142L36.9743 47.7151L37.3789 48.0088ZM32.6192 48.0133L33.0232 47.7187L33.0231 47.7186L32.6192 48.0133ZM32.6159 48.0088L32.2112 48.3024L32.212 48.3035L32.6159 48.0088ZM30.7606 48.0112L30.356 47.7173L30.3559 47.7175L30.7606 48.0112ZM26.0008 48.0157L25.5968 48.3103L25.5968 48.3103L26.0008 48.0157ZM25.9975 48.0112L25.5928 48.3048L25.5935 48.3058L25.9975 48.0112ZM24.1422 48.0136L23.7376 47.7197L23.7375 47.7199L24.1422 48.0136ZM20.7241 49.049L21.1052 48.7253L21.1041 48.724L20.7241 49.049ZM20.4791 45.0517L20.9749 45.1165L20.975 45.1157L20.4791 45.0517ZM20.4836 45.0172L19.9877 44.9532L19.9877 44.9532L20.4836 45.0172ZM20.6719 42.6575L21.17 42.614L21.1214 42.0575L20.5737 42.1673L20.6719 42.6575ZM15.3261 49.0142L14.8775 48.7934L14.8766 48.7952L15.3261 49.0142ZM14.4619 49.5238L14.5255 49.0278L14.5083 49.0256L14.4909 49.0246L14.4619 49.5238ZM13.6636 48.9142L14.1354 48.7486L14.1351 48.7478L13.6636 48.9142ZM13.5252 40.1446L13.1036 39.8759L13.1033 39.8762L13.5252 40.1446ZM16.7822 38.3344L16.8153 38.8333L16.8156 38.8333L16.7822 38.3344ZM18.7123 37.634L19.1766 37.8197L19.1766 37.8197L18.7123 37.634ZM18.4152 36.8476L18.0356 37.173L18.0361 37.1736L18.4152 36.8476ZM14.5095 35.9053L14.6432 36.3871L14.6438 36.3869L14.5095 35.9053ZM8.55343 43.2138L8.07038 43.0847L8.07026 43.0852L8.55343 43.2138ZM9.1862 47.9463L9.54976 47.6031L9.54874 47.602L9.1862 47.9463ZM9.16805 49.2632L9.52047 49.6179L9.52158 49.6168L9.16805 49.2632ZM7.88434 49.2446L8.24678 48.9002L8.24672 48.9001L7.88434 49.2446ZM6.80244 42.723L7.2855 42.852L7.28553 42.8519L6.80244 42.723ZM14.0354 34.1094L14.1689 34.5913L14.169 34.5912L14.0354 34.1094ZM19.7782 35.6195L19.3985 35.9448L19.3989 35.9453L19.7782 35.6195ZM20.3906 38.3464L20.854 38.534L20.8542 38.5337L20.3906 38.3464ZM16.9 40.1938L16.8666 39.6949L16.8666 39.6949L16.9 40.1938ZM15.0469 41.1641L14.6255 40.895L14.6252 40.8955L15.0469 41.1641ZM14.8065 46.1921L14.3167 46.2922L14.5719 47.5415L15.2339 46.4516L14.8065 46.1921ZM21.028 40.7755L21.0455 40.2758L21.044 40.2757L21.028 40.7755ZM22.0418 41.2757L21.6554 41.5929L21.6566 41.5944L22.0418 41.2757ZM22.466 42.4739L21.9681 42.5197L22.0457 43.3635L22.7468 42.8876L22.466 42.4739ZM31.3798 39.7214L31.4313 40.2188L31.9996 40.1599L31.866 39.6045L31.3798 39.7214ZM36.4105 5.32807L36.0525 4.979L36.0382 4.99364L36.0252 5.00939L36.4105 5.32807ZM36.4217 5.31817L36.7368 5.70637L36.7368 5.70634L36.4217 5.31817ZM36.4354 5.3048L36.0637 4.97037L36.0468 4.9892L36.0318 5.00964L36.4354 5.3048ZM36.5194 5.22337L36.8471 5.60095L36.8628 5.5873L36.8774 5.5724L36.5194 5.22337ZM36.5761 5.1745L36.2938 4.76178L36.2938 4.7618L36.5761 5.1745ZM36.6609 5.12286L36.9091 5.55689L36.9097 5.55657L36.6609 5.12286ZM36.6804 5.11168L36.9292 5.54539L36.9399 5.53925L36.9503 5.53259L36.6804 5.11168ZM36.7371 5.07911L36.5388 4.62L36.5297 4.62416L36.7371 5.07911ZM36.8686 5.0349L36.7962 4.54018L36.77 4.54401L36.7444 4.55057L36.8686 5.0349ZM36.9004 5.02611L37.0621 5.49923L37.0958 5.48772L37.1275 5.47157L36.9004 5.02611ZM36.9004 5.02611L36.7386 4.55301L36.705 4.56451L36.6733 4.58065L36.9004 5.02611ZM36.9163 5.02094L36.8051 4.53345L36.7903 4.53684L36.7756 4.54112L36.9163 5.02094ZM37.1068 5L37.1242 4.5003L37.1155 4.5H37.1068V5ZM37.2406 5.00465L37.2232 5.50435L37.2319 5.50465H37.2406V5.00465ZM37.9324 5.33272L37.5463 5.6505L37.5478 5.6523L37.9324 5.33272ZM43.0084 39.5563L42.5219 39.4408L42.3844 40.0197L42.9784 40.0554L43.0084 39.5563ZM58.0955 46.0804L58.5814 45.962L58.5788 45.9523L58.0955 46.0804ZM58.0969 46.088L58.5936 46.0298L58.5923 46.0205L58.0969 46.088ZM58.0978 46.0955L58.5949 46.0415L58.5944 46.0372L58.0978 46.0955ZM58.1 46.1106L58.5945 46.0365L58.5911 46.0141L58.5858 45.9921L58.1 46.1106ZM58.1136 46.2013L58.6089 46.1324L58.6081 46.1272L58.1136 46.2013ZM58.1204 46.3805L57.6241 46.32L57.6225 46.3332L57.6216 46.3464L58.1204 46.3805ZM58.1202 46.3837L58.6164 46.4457L58.6181 46.4318L58.6191 46.4178L58.1202 46.3837ZM58.1202 46.3838L57.6241 46.3218L57.6224 46.3354L57.6214 46.3491L58.1202 46.3838ZM58.1091 46.4806L57.6197 46.3783L57.6174 46.3893L57.6156 46.4003L58.1091 46.4806ZM58.1002 46.5257L57.6125 46.4153L57.6125 46.4153L58.1002 46.5257ZM58.091 46.5643L58.5699 46.708L58.5736 46.6955L58.5767 46.6828L58.091 46.5643ZM58.0865 46.5799L58.5677 46.7154L58.5678 46.7154L58.0865 46.5799ZM58.0831 46.5919L57.6013 46.4583L57.6013 46.4584L58.0831 46.5919ZM40.3588 42.4227V42.9227H40.7315L40.8379 42.5656L40.3588 42.4227ZM38.0135 42.4227H37.5135V42.9227H38.0135V42.4227ZM38.0135 8.77869L38.4476 8.53051L37.5135 6.89688V8.77869H38.0135ZM36.1991 42.4227V42.9227H36.6991V42.4227H36.1991ZM36.1991 9.02289H36.6991V7.09503L35.7621 8.77988L36.1991 9.02289ZM33.9877 42.4227L33.5085 42.5656L33.615 42.9227H33.9877V42.4227ZM55.1764 47.1855L55.6546 47.3316L55.8827 46.5848L55.109 46.6901L55.1764 47.1855ZM55.1718 47.2006L54.6936 47.0546L54.6936 47.0546L55.1718 47.2006ZM55.1757 47.1856L54.6975 47.0396L54.4694 47.7864L55.2432 47.6811L55.1757 47.1856ZM55.9106 45.8617L56.2452 46.2332L56.5893 45.9232L56.3065 45.5564L55.9106 45.8617ZM42.5404 41.3967L42.5668 40.8974L42.1633 40.8761L42.0577 41.2661L42.5404 41.3967ZM41.8894 43.6397L42.3668 43.7883L42.3669 43.7881L41.8894 43.6397ZM32.4544 43.6397L31.9765 43.7868L31.977 43.7882L32.4544 43.6397ZM31.8488 41.5503L32.331 41.418L32.2196 41.0122L31.8007 41.0526L31.8488 41.5503ZM22.3363 44.8798L22.0254 44.4882L21.8666 44.6143L21.8405 44.8153L22.3363 44.8798ZM22.3157 45.0432L21.8195 44.9814L21.8195 44.9814L22.3157 45.0432ZM22.2819 45.3056L21.7865 45.2377L21.786 45.241L22.2819 45.3056ZM22.0845 47.5904L21.5851 47.6147L21.6259 48.4516L22.3431 48.0184L22.0845 47.5904ZM22.6901 46.9087L22.2861 46.6141L22.2848 46.616L22.6901 46.9087ZM22.6934 46.9042L22.2894 46.6096L22.2893 46.6097L22.6934 46.9042ZM27.4522 46.9042L27.8562 46.6096L27.8561 46.6096L27.4522 46.9042ZM27.4554 46.9087L27.8601 46.6151L27.8594 46.6141L27.4554 46.9087ZM29.3108 46.9087L29.7148 47.2033L29.7148 47.2033L29.3108 46.9087ZM29.314 46.9042L28.9101 46.6096L28.91 46.6096L29.314 46.9042ZM34.0728 46.9042L34.4768 46.6096L34.4768 46.6096L34.0728 46.9042ZM34.0761 46.9087L33.6721 47.2033L33.6721 47.2033L34.0761 46.9087ZM35.9314 46.9087L36.3354 47.2033L36.3361 47.2024L35.9314 46.9087ZM40.6912 46.9042L41.0952 46.6096L41.0952 46.6096L40.6912 46.9042ZM40.6945 46.9087L41.099 46.6148L41.0985 46.6141L40.6945 46.9087ZM42.5521 46.9111L42.9561 47.2057L42.9562 47.2055L42.5521 46.9111ZM42.5553 46.9066L42.1514 46.612L42.1512 46.6121L42.5553 46.9066ZM47.3141 46.9066L47.7181 46.612L47.7181 46.6119L47.3141 46.9066ZM47.3174 46.9111L47.7221 46.6174L47.7214 46.6165L47.3174 46.9111ZM49.175 46.9087L49.5795 47.2025L49.5797 47.2024L49.175 46.9087ZM53.937 46.9042L53.5331 47.1988L53.5331 47.1989L53.937 46.9042ZM53.9403 46.9087L54.3443 46.6141L54.3442 46.614L53.9403 46.9087ZM55.0063 47.6555L55.2111 48.1117L55.3153 48.0649L55.3888 47.9775L55.0063 47.6555ZM58.4712 46.9689C58.5009 46.913 58.523 46.8574 58.5393 46.8073L57.5882 46.4982C57.5874 46.5006 57.5868 46.5022 57.5866 46.5028C57.5863 46.5034 57.5868 46.5022 57.5883 46.4994L58.4712 46.9689ZM57.7097 46.35L57.7093 46.3503L58.3501 47.118L58.3506 47.1176L57.7097 46.35ZM58.258 47.2186C58.4042 47.1186 58.4655 46.9818 58.4796 46.9529L57.5807 46.5147C57.5676 46.5417 57.6016 46.456 57.6935 46.3932L58.258 47.2186ZM58.3553 47.1373C58.3655 47.1229 58.3826 47.0986 58.4006 47.0695L57.5508 46.5424C57.5495 46.5444 57.5473 46.548 57.5381 46.561L58.3553 47.1373ZM58.3456 47.151L58.3554 47.1371L57.538 46.5611L57.5282 46.575L58.3456 47.151ZM58.3391 47.1605L58.3479 47.1478L57.5259 46.5783L57.5171 46.591L58.3391 47.1605ZM58.245 47.2776C58.2751 47.2433 58.3026 47.2085 58.3223 47.1833L57.5339 46.5682C57.5173 46.5894 57.504 46.6059 57.4933 46.6181L58.245 47.2776ZM58.1493 47.3731C58.1822 47.3431 58.2102 47.3142 58.2272 47.2969L57.5111 46.5988C57.4917 46.6187 57.4834 46.627 57.4755 46.6343L58.1493 47.3731ZM58.0388 47.4673C58.0791 47.4372 58.1251 47.3992 58.1704 47.3527L57.4544 46.6547C57.4546 46.6545 57.4536 46.6555 57.4512 46.6576C57.4488 46.6596 57.4454 46.6624 57.4409 46.6658L58.0388 47.4673ZM57.9838 47.5048C57.9968 47.4963 58.0098 47.4876 58.0221 47.4792L57.4576 46.6538C57.4515 46.658 57.4443 46.6628 57.4366 46.6678L57.9838 47.5048ZM57.9591 47.5207C57.9674 47.5155 57.9756 47.5102 57.9837 47.5049L57.4367 46.6678C57.4319 46.6709 57.4272 46.674 57.4225 46.6769L57.9591 47.5207ZM57.9339 47.5365C57.9424 47.5313 57.9509 47.526 57.959 47.5208L57.4226 46.6769C57.4179 46.6798 57.4136 46.6825 57.4097 46.6849L57.9339 47.5365ZM57.8961 47.5578C57.8995 47.5558 57.9005 47.5554 57.9 47.5556L57.4436 46.6659C57.4297 46.673 57.4175 46.6797 57.4078 46.6851L57.8961 47.5578ZM57.8736 47.5705L57.8984 47.5565L57.4055 46.6864L57.3806 46.7005L57.8736 47.5705ZM57.8042 47.6068C57.8331 47.5931 57.8572 47.5798 57.8726 47.5711L57.3816 46.6999C57.3734 46.7046 57.3732 46.7044 57.3761 46.7031L57.8042 47.6068ZM57.7042 47.6487C57.7199 47.6428 57.7683 47.6255 57.8183 47.5999L57.362 46.71C57.3697 46.7061 57.3744 46.7043 57.3731 46.7048C57.3726 46.705 57.3711 46.7056 57.3682 46.7067C57.3651 46.7078 57.3617 46.7091 57.3563 46.7111L57.7042 47.6487ZM57.6934 47.6527C57.6964 47.6515 57.6997 47.6503 57.7043 47.6486L57.3561 46.7112C57.3519 46.7127 57.3463 46.7148 57.3404 46.717L57.6934 47.6527ZM57.6873 47.655C57.6888 47.6544 57.6907 47.6537 57.6933 47.6527L57.3405 46.717C57.3344 46.7193 57.3277 46.7219 57.3206 46.7247L57.6873 47.655ZM57.69 47.654C57.6933 47.6525 57.6932 47.6525 57.6926 47.6528C57.6917 47.6532 57.6884 47.6546 57.6837 47.6564L57.3243 46.7232C57.3042 46.731 57.2868 46.7389 57.2827 46.7407L57.69 47.654ZM57.7099 47.6446L57.7099 47.6445L57.2627 46.7501L57.2627 46.7501L57.7099 47.6446ZM57.5607 47.6983C57.6287 47.6827 57.6826 47.6573 57.6898 47.6541L57.2828 46.7407C57.2752 46.744 57.2812 46.7412 57.2893 46.7381C57.2992 46.7343 57.3163 46.7283 57.3383 46.7233L57.5607 47.6983ZM57.4898 47.7096C57.5137 47.7074 57.5422 47.7032 57.5739 47.6951L57.3251 46.7265C57.3529 46.7194 57.3778 46.7157 57.3981 46.7138L57.4898 47.7096ZM57.4389 47.7119C57.4425 47.7119 57.4633 47.712 57.489 47.7097L57.3989 46.7138C57.4103 46.7127 57.4198 46.7123 57.4262 46.7121C57.4322 46.7119 57.4368 46.7119 57.437 46.7119L57.4389 47.7119ZM57.5487 47.6975C57.4819 47.7146 57.4208 47.712 57.4388 47.7119L57.437 46.7119C57.4465 46.7119 57.377 46.7091 57.3005 46.7288L57.5487 47.6975ZM57.2068 47.7434C57.3337 47.7434 57.45 47.7236 57.5525 47.6965L57.2966 46.7298C57.2586 46.7398 57.2297 46.7434 57.2068 46.7434V47.7434ZM57.0685 47.2596C57.2732 47.7158 57.273 47.7159 57.2728 47.716C57.2727 47.716 57.2724 47.7162 57.2723 47.7162C57.272 47.7164 57.2717 47.7165 57.2714 47.7166C57.2707 47.7169 57.2701 47.7172 57.2695 47.7175C57.2683 47.718 57.2671 47.7185 57.2659 47.719C57.2634 47.7201 57.2611 47.7211 57.2587 47.722C57.2541 47.7239 57.2496 47.7257 57.2453 47.7273C57.2367 47.7305 57.2289 47.7331 57.2219 47.7353C57.2079 47.7395 57.1974 47.7418 57.1911 47.743C57.1786 47.7453 57.1821 47.7434 57.2068 47.7434V46.7434C57.1295 46.7434 57.0639 46.7495 57.0077 46.76C56.9795 46.7652 56.9536 46.7716 56.9296 46.7789C56.9177 46.7826 56.9062 46.7865 56.8952 46.7906C56.8897 46.7926 56.8844 46.7947 56.8791 46.7969C56.8765 46.798 56.8739 46.799 56.8713 46.8001C56.8701 46.8007 56.8688 46.8012 56.8675 46.8018C56.8669 46.8021 56.8663 46.8024 56.8656 46.8026C56.8653 46.8028 56.865 46.8029 56.8647 46.8031C56.8645 46.8031 56.8643 46.8032 56.8642 46.8033C56.864 46.8034 56.8638 46.8035 57.0685 47.2596ZM57.3812 47.8604C57.4058 47.7801 57.4342 47.6873 57.461 47.609C57.4746 47.5695 57.4853 47.5408 57.4928 47.523C57.4966 47.5141 57.4973 47.5132 57.4949 47.5178C57.4936 47.5203 57.4901 47.5269 57.4844 47.536C57.4792 47.5443 57.4682 47.5613 57.451 47.5817L56.686 46.9376C56.62 47.0161 56.582 47.1091 56.5708 47.136C56.5508 47.1835 56.5318 47.236 56.5152 47.2844C56.4818 47.3818 56.4483 47.4915 56.4248 47.5684L57.3812 47.8604ZM57.3672 47.9002L57.3673 47.9001L56.4388 47.5287L56.4388 47.5288L57.3672 47.9002ZM57.3766 47.8756L57.3812 47.8605L56.4248 47.5685L56.4202 47.5836L57.3766 47.8756ZM54.8571 50.0212C55.7651 50.0212 56.3713 49.6427 56.7617 49.1567C57.131 48.6969 57.2901 48.1602 57.3768 47.8751L56.42 47.5841C56.3298 47.8808 56.2155 48.2399 55.9821 48.5304C55.7698 48.7947 55.4438 49.0212 54.8571 49.0212V50.0212ZM52.0749 48.3079C52.5301 48.9321 53.3006 50.0212 54.8571 50.0212V49.0212C53.8567 49.0212 53.357 48.3687 52.8829 47.7187L52.0749 48.3079ZM52.0717 48.3035L52.075 48.308L52.8828 47.7186L52.8795 47.7141L52.0717 48.3035ZM51.5479 47.7433C51.5867 47.7433 51.5982 47.7479 51.5994 47.7484C51.6005 47.7487 51.6145 47.7533 51.6473 47.7812C51.7301 47.8515 51.8465 47.992 52.0703 48.3017L52.8809 47.7159C52.6692 47.423 52.4851 47.1807 52.2946 47.0189C52.0649 46.8239 51.8262 46.7433 51.5479 46.7433V47.7433ZM51.0242 48.301C51.2497 47.9918 51.3661 47.8516 51.4493 47.781C51.4822 47.7531 51.4961 47.7486 51.4969 47.7483C51.4978 47.7479 51.5092 47.7433 51.5479 47.7433V46.7433C51.2693 46.7433 51.0314 46.824 50.8022 47.0185C50.6127 47.1794 50.4285 47.4207 50.2163 47.7118L51.0242 48.301ZM51.0211 48.3053L51.0243 48.3009L50.2162 47.7119L50.2129 47.7164L51.0211 48.3053ZM48.2365 50.0188C49.7951 50.0188 50.5655 48.93 51.021 48.3055L50.213 47.7162C49.7391 48.366 49.2393 49.0188 48.2365 49.0188V50.0188ZM45.4542 48.3055C45.9095 48.9297 46.6799 50.0188 48.2365 50.0188V49.0188C47.236 49.0188 46.7363 48.3664 46.2622 47.7163L45.4542 48.3055ZM45.4509 48.301L45.4542 48.3054L46.2623 47.7164L46.259 47.7119L45.4509 48.301ZM44.9273 47.7433C44.966 47.7433 44.9777 47.7479 44.9789 47.7484C44.9802 47.7488 44.9943 47.7535 45.0271 47.7813C45.11 47.8515 45.2264 47.9915 45.4502 48.3L46.2597 47.7128C46.048 47.4211 45.8639 47.1795 45.6734 47.0182C45.4439 46.8238 45.2055 46.7433 44.9273 46.7433V47.7433ZM44.4041 48.3027C44.6291 47.993 44.7463 47.852 44.8296 47.7812C44.8627 47.7531 44.8768 47.7485 44.8777 47.7481C44.8785 47.7478 44.8895 47.7433 44.9273 47.7433V46.7433C44.6491 46.7433 44.4113 46.8245 44.1823 47.019C43.9923 47.1803 43.8078 47.4221 43.5951 47.7149L44.4041 48.3027ZM41.6181 50.0212C43.178 50.0212 43.9506 48.9276 44.4042 48.3025L43.5949 47.7151C43.1232 48.365 42.621 49.0212 41.6181 49.0212V50.0212ZM38.8336 48.3079C39.289 48.9324 40.0594 50.0212 41.6181 50.0212V49.0212C40.6152 49.0212 40.1154 48.3684 39.6415 47.7187L38.8336 48.3079ZM38.8304 48.3035L38.8336 48.308L39.6415 47.7186L39.6382 47.7141L38.8304 48.3035ZM38.3066 47.7457C38.3454 47.7457 38.357 47.7503 38.3583 47.7508C38.3595 47.7512 38.3737 47.7559 38.4065 47.7837C38.4894 47.8539 38.6057 47.9939 38.8296 48.3024L39.639 47.7152C39.4274 47.4235 39.2432 47.1819 39.0528 47.0206C38.8232 46.8262 38.5848 46.7457 38.3066 46.7457V47.7457ZM37.7829 48.3034C38.0084 47.9942 38.1248 47.8539 38.208 47.7833C38.2409 47.7555 38.2548 47.751 38.2556 47.7506C38.2565 47.7503 38.2679 47.7457 38.3066 47.7457V46.7457C38.028 46.7457 37.7901 46.8264 37.5609 47.0209C37.3714 47.1818 37.1872 47.4231 36.975 47.7142L37.7829 48.3034ZM34.9974 50.0212C36.5598 50.0212 37.3301 48.9273 37.7836 48.3025L36.9743 47.7151C36.5024 48.3653 36.0025 49.0212 34.9974 49.0212V50.0212ZM32.2152 48.3079C32.6704 48.9321 33.4409 50.0212 34.9974 50.0212V49.0212C33.997 49.0212 33.4973 48.3687 33.0232 47.7187L32.2152 48.3079ZM32.212 48.3035L32.2152 48.308L33.0231 47.7186L33.0199 47.7142L32.212 48.3035ZM31.6882 47.7457C31.727 47.7457 31.7386 47.7503 31.7399 47.7508C31.7411 47.7512 31.7553 47.7559 31.7881 47.7837C31.871 47.8539 31.9873 47.9939 32.2112 48.3024L33.0206 47.7152C32.809 47.4235 32.6248 47.1819 32.4344 47.0206C32.2048 46.8262 31.9664 46.7457 31.6882 46.7457V47.7457ZM31.1651 48.3051C31.3901 47.9953 31.5072 47.8544 31.5906 47.7836C31.6237 47.7555 31.6378 47.7508 31.6387 47.7505C31.6395 47.7502 31.6504 47.7457 31.6882 47.7457V46.7457C31.4101 46.7457 31.1723 46.8269 30.9433 47.0213C30.7533 47.1827 30.5688 47.4244 30.356 47.7173L31.1651 48.3051ZM28.379 50.0236C29.939 50.0236 30.7115 48.93 31.1652 48.3049L30.3559 47.7175C29.8842 48.3674 29.3821 49.0236 28.379 49.0236V50.0236ZM25.5968 48.3103C26.0521 48.9345 26.8225 50.0236 28.379 50.0236V49.0236C27.3786 49.0236 26.8789 48.3711 26.4048 47.7211L25.5968 48.3103ZM25.5935 48.3058L25.5968 48.3103L26.4048 47.7211L26.4015 47.7166L25.5935 48.3058ZM25.0698 47.7481C25.1086 47.7481 25.1202 47.7527 25.1215 47.7532C25.1228 47.7536 25.1369 47.7583 25.1697 47.7861C25.2526 47.8563 25.369 47.9963 25.5928 48.3048L26.4022 47.7176C26.1906 47.4259 26.0064 47.1843 25.816 47.023C25.5864 46.8286 25.348 46.7481 25.0698 46.7481V47.7481ZM24.5467 48.3074C24.7717 47.9977 24.8888 47.8567 24.9722 47.786C25.0053 47.7578 25.0194 47.7532 25.0203 47.7529C25.0211 47.7526 25.0321 47.7481 25.0698 47.7481V46.7481C24.7917 46.7481 24.5539 46.8293 24.3249 47.0237C24.1349 47.185 23.9504 47.4268 23.7376 47.7197L24.5467 48.3074ZM21.7606 50.026C23.3206 50.026 24.0931 48.9324 24.5468 48.3073L23.7375 47.7199C23.2658 48.3698 22.7636 49.026 21.7606 49.026V50.026ZM20.343 49.3726C20.6999 49.7929 21.2095 50.026 21.7606 50.026V49.026C21.4997 49.026 21.27 48.9193 21.1052 48.7253L20.343 49.3726ZM19.9834 44.9869C19.8541 45.9766 19.7509 46.8303 19.7666 47.5327C19.7825 48.2385 19.9185 48.8764 20.3441 49.374L21.1041 48.724C20.8969 48.4817 20.78 48.1192 20.7664 47.5103C20.7527 46.8982 20.8434 46.1232 20.9749 45.1165L19.9834 44.9869ZM19.9877 44.9532L19.9833 44.9878L20.975 45.1157L20.9795 45.0811L19.9877 44.9532ZM20.1738 42.7011C20.1928 42.9182 20.174 43.2859 20.1325 43.7199C20.0922 44.143 20.0345 44.5908 19.9877 44.9532L20.9795 45.0811C21.0259 44.7212 21.0858 44.2572 21.128 43.8149C21.1692 43.3836 21.1979 42.9327 21.17 42.614L20.1738 42.7011ZM15.7746 49.235C16.3849 47.9954 17.2798 46.5215 18.2242 45.3224C18.6966 44.7227 19.1725 44.203 19.6226 43.8174C20.082 43.4238 20.4712 43.2077 20.7702 43.1478L20.5737 42.1673C20.0255 42.2771 19.4789 42.6237 18.972 43.058C18.4559 43.5002 17.9351 44.0734 17.4387 44.7036C16.4456 45.9645 15.5146 47.4992 14.8775 48.7934L15.7746 49.235ZM14.5164 50.0261C15.0499 50.0261 15.5384 49.7197 15.7755 49.2332L14.8766 48.7952C14.8052 48.9416 14.6633 49.0261 14.5164 49.0261V50.0261ZM14.3983 50.0197C14.4534 50.0267 14.5034 50.0261 14.5164 50.0261V49.0261C14.5115 49.0261 14.509 49.0261 14.5068 49.0261C14.5048 49.026 14.5045 49.026 14.5052 49.026C14.5064 49.0261 14.5141 49.0263 14.5255 49.0278L14.3983 50.0197ZM13.1918 49.0797C13.3795 49.6146 13.8663 49.99 14.433 50.0229L14.4909 49.0246C14.3363 49.0156 14.1926 48.9117 14.1354 48.7486L13.1918 49.0797ZM13.1033 39.8762C12.076 41.4912 12.0827 43.6912 12.3259 45.4678C12.5726 47.2704 13.0828 48.7709 13.192 49.0805L14.1351 48.7478C14.0357 48.466 13.5502 47.0382 13.3166 45.3322C13.0795 43.6001 13.1214 41.711 13.9471 40.413L13.1033 39.8762ZM16.7491 37.8355C15.1734 37.94 13.8938 38.6359 13.1036 39.8759L13.9469 40.4133C14.5447 39.4754 15.5151 38.9195 16.8153 38.8333L16.7491 37.8355ZM18.2481 37.4484C18.2692 37.3956 18.2545 37.4799 17.9824 37.5935C17.7348 37.6969 17.337 37.7961 16.7488 37.8355L16.8156 38.8333C17.4771 38.7889 17.9899 38.6741 18.3678 38.5163C18.7211 38.3687 19.0466 38.1447 19.1766 37.8197L18.2481 37.4484ZM18.0361 37.1736C18.1339 37.2873 18.1917 37.389 18.2184 37.4598C18.2315 37.4947 18.2336 37.5129 18.2338 37.515C18.234 37.5175 18.2312 37.4907 18.2481 37.4484L19.1766 37.8197C19.2799 37.5613 19.2252 37.2958 19.1542 37.1073C19.0777 36.9042 18.9506 36.7034 18.7944 36.5217L18.0361 37.1736ZM14.6438 36.3869C16.1852 35.9572 17.4923 36.539 18.0356 37.173L18.7949 36.5223C17.9864 35.5788 16.2722 34.8948 14.3753 35.4237L14.6438 36.3869ZM9.03647 43.3429C9.46675 41.733 10.3246 40.1338 11.3628 38.86C12.4091 37.5761 13.592 36.6787 14.6432 36.3871L14.3759 35.4235C13.0432 35.7931 11.6982 36.8654 10.5876 38.2282C9.46878 39.6011 8.54055 41.3255 8.07038 43.0847L9.03647 43.3429ZM9.54874 47.602C9.01732 47.0425 8.80164 46.2902 8.76802 45.4944C8.73442 44.699 8.88566 43.9094 9.0366 43.3424L8.07026 43.0852C7.90591 43.7025 7.72938 44.6009 7.76891 45.5366C7.80842 46.4719 8.06677 47.4937 8.82366 48.2907L9.54874 47.602ZM9.52158 49.6168C10.0714 49.0671 10.0847 48.1697 9.54976 47.6031L8.82264 48.2896C8.98625 48.4629 8.98148 48.7427 8.81453 48.9096L9.52158 49.6168ZM7.52189 49.589C8.06703 50.1627 8.96123 50.1736 9.52047 49.6179L8.81564 48.9085C8.65361 49.0695 8.40475 49.0664 8.24678 48.9002L7.52189 49.589ZM6.31939 42.5939C5.56903 45.4027 5.93855 47.9235 7.52195 49.5891L8.24672 48.9001C6.9859 47.5738 6.58881 45.4599 7.2855 42.852L6.31939 42.5939ZM13.9019 33.6276C12.0941 34.1284 10.4381 35.4921 9.12879 37.1352C7.81451 38.7846 6.80663 40.7685 6.31936 42.594L7.28553 42.8519C7.73482 41.1687 8.67635 39.3077 9.91087 37.7584C11.1503 36.2029 12.6425 35.0141 14.1689 34.5913L13.9019 33.6276ZM20.1579 35.2942C18.9635 33.9002 16.5759 32.8861 13.9018 33.6276L14.169 34.5912C16.4619 33.9554 18.4517 34.8398 19.3985 35.9448L20.1579 35.2942ZM20.8542 38.5337C21.2918 37.4503 20.9902 36.2629 20.1574 35.2936L19.3989 35.9453C20.0495 36.7025 20.1924 37.5021 19.927 38.1591L20.8542 38.5337ZM16.9333 40.6927C18.1598 40.6107 19.0432 40.3207 19.6745 39.9162C20.3111 39.5084 20.665 39.0008 20.854 38.534L19.9271 38.1587C19.8099 38.4482 19.5844 38.7863 19.1351 39.0742C18.6805 39.3654 17.9717 39.621 16.8666 39.6949L16.9333 40.6927ZM15.4684 41.4331C15.7419 41.0047 16.1826 40.743 16.9334 40.6927L16.8666 39.6949C15.88 39.761 15.1095 40.1368 14.6255 40.895L15.4684 41.4331ZM15.2964 46.092C15.127 45.2627 15.0024 44.3431 15.01 43.4958C15.0176 42.6362 15.161 41.9159 15.4687 41.4326L14.6252 40.8955C14.1685 41.6128 14.0182 42.5572 14.01 43.4869C14.0016 44.4288 14.1391 45.4229 14.3167 46.2922L15.2964 46.092ZM21.044 40.2757C19.59 40.2292 18.2446 41.1548 17.1457 42.2616C16.029 43.3863 15.0678 44.7987 14.3792 45.9325L15.2339 46.4516C15.9062 45.3448 16.8197 44.0093 17.8554 42.9661C18.909 41.905 19.9938 41.2426 21.012 41.2752L21.044 40.2757ZM22.4283 40.9585C22.0825 40.5372 21.5871 40.2947 21.0455 40.2758L21.0105 41.2752C21.2673 41.2841 21.4931 41.3953 21.6554 41.5929L22.4283 40.9585ZM22.9639 42.4282C22.9135 41.8805 22.7694 41.3709 22.4271 40.957L21.6566 41.5944C21.8223 41.7948 21.9277 42.0808 21.9681 42.5197L22.9639 42.4282ZM31.3283 39.2241C26.4527 39.729 23.9342 40.8731 22.1852 42.0602L22.7468 42.8876C24.3364 41.8087 26.6903 40.7097 31.4313 40.2188L31.3283 39.2241ZM36.0252 5.00939C35.5217 5.61808 25.6317 17.9701 30.8937 39.8384L31.866 39.6045C26.7034 18.1496 36.4101 6.11299 36.7958 5.64674L36.0252 5.00939ZM36.1066 4.92997C36.1046 4.93155 36.0793 4.95153 36.0525 4.979L36.7685 5.67714C36.7582 5.68767 36.7493 5.69567 36.7434 5.70076C36.7384 5.70514 36.7342 5.70849 36.7368 5.70637L36.1066 4.92997ZM36.0318 5.00964C36.0531 4.98065 36.0738 4.95951 36.0883 4.94602C36.1005 4.93468 36.1114 4.92607 36.1065 4.93L36.7368 5.70634C36.7371 5.70616 36.7529 5.69359 36.7697 5.67794C36.7888 5.66015 36.8139 5.63438 36.839 5.59996L36.0318 5.00964ZM36.1916 4.84578C36.152 4.88015 36.1088 4.92032 36.0637 4.97037L36.8071 5.63923C36.8165 5.62879 36.8277 5.61777 36.8471 5.60095L36.1916 4.84578ZM36.2938 4.7618C36.2374 4.80038 36.1938 4.84103 36.1613 4.87433L36.8774 5.5724C36.8812 5.56847 36.8739 5.57655 36.8583 5.58721L36.2938 4.7618ZM36.4127 4.68883C36.386 4.70408 36.3409 4.7296 36.2938 4.76178L36.8583 5.58723C36.867 5.58129 36.8776 5.57494 36.9091 5.55689L36.4127 4.68883ZM36.4316 4.67798L36.4121 4.68916L36.9097 5.55657L36.9292 5.54539L36.4316 4.67798ZM36.5297 4.62416C36.4717 4.65057 36.4245 4.68179 36.4105 4.69077L36.9503 5.53259C36.9551 5.52948 36.9577 5.52782 36.96 5.52638C36.9621 5.52508 36.9626 5.52478 36.9622 5.52504C36.9613 5.52556 36.9548 5.52935 36.9445 5.53405L36.5297 4.62416ZM36.7444 4.55057C36.6791 4.56733 36.6105 4.58914 36.5388 4.62009L36.9354 5.53812C36.9499 5.53185 36.9674 5.52574 36.9929 5.51923L36.7444 4.55057ZM36.7386 4.553C36.7315 4.55545 36.7367 4.55356 36.7439 4.55146C36.7521 4.54907 36.7708 4.5439 36.7962 4.54018L36.9411 5.52962C37.0055 5.52019 37.0605 5.4998 37.0621 5.49923L36.7386 4.553ZM36.6733 4.58065L36.6733 4.58065L37.1275 5.47157L37.1275 5.47157L36.6733 4.58065ZM36.7756 4.54112C36.7579 4.54633 36.742 4.55184 36.7386 4.55301L37.0622 5.49921C37.0653 5.49816 37.0653 5.49815 37.0649 5.49828C37.0642 5.4985 37.0613 5.49947 37.0569 5.50076L36.7756 4.54112ZM37.1068 4.5C37.0054 4.5 36.9045 4.51079 36.8051 4.53345L37.0274 5.50843C37.0505 5.50317 37.0766 5.5 37.1068 5.5V4.5ZM37.258 4.50496L37.1242 4.5003L37.0894 5.4997L37.2232 5.50435L37.258 4.50496ZM38.3184 5.01494C38.0516 4.69082 37.6585 4.50465 37.2406 4.50465V5.50465C37.3579 5.50465 37.4684 5.55581 37.5463 5.65049L38.3184 5.01494ZM43.4948 39.6719C48.6628 17.9091 38.8211 5.61986 38.3169 5.01314L37.5478 5.6523C37.9327 6.11534 47.5921 18.09 42.5219 39.4408L43.4948 39.6719ZM58.5788 45.9523C58.5206 45.7328 58.0343 44.1994 55.8394 42.6241C53.6507 41.0532 49.7952 39.4635 43.0384 39.0572L42.9784 40.0554C49.6076 40.4541 53.2639 42.0066 55.2563 43.4365C57.2427 44.8622 57.6068 46.1883 57.6122 46.2084L58.5788 45.9523ZM58.5923 46.0205C58.5907 46.009 58.5875 45.9877 58.5813 45.962L57.6097 46.1988C57.6046 46.1779 57.6023 46.1618 57.6015 46.1556L58.5923 46.0205ZM58.5944 46.0372L58.5935 46.0298L57.6003 46.1463L57.6012 46.1537L58.5944 46.0372ZM58.5858 45.9921C58.5906 46.0119 58.593 46.0274 58.5939 46.0342C58.5948 46.0405 58.5953 46.0456 58.5948 46.0415L57.6007 46.1494C57.6008 46.1506 57.6019 46.1609 57.6035 46.1723C57.6051 46.1842 57.6083 46.2046 57.6143 46.2292L58.5858 45.9921ZM58.6081 46.1272L58.5945 46.0365L57.6056 46.1848L57.6192 46.2755L58.6081 46.1272ZM58.6227 46.2991C58.6227 46.226 58.6126 46.1589 58.6089 46.1324L57.6184 46.2703C57.6196 46.2788 57.6204 46.2848 57.6212 46.2905C57.6219 46.296 57.6223 46.2996 57.6226 46.3022C57.6232 46.3076 57.6227 46.3055 57.6227 46.2991H58.6227ZM58.6202 46.2524C58.6197 46.249 58.6204 46.2541 58.621 46.2606C58.6217 46.2679 58.6227 46.2816 58.6227 46.2991H57.6227C57.6227 46.3212 57.624 46.3395 57.6251 46.3515C57.6262 46.3626 57.6274 46.3724 57.6275 46.3736L58.6202 46.2524ZM58.625 46.327C58.625 46.3048 58.6237 46.2865 58.6226 46.2746C58.6215 46.2634 58.6203 46.2536 58.6202 46.2524L57.6275 46.3736C57.628 46.3771 57.6273 46.3719 57.6267 46.3654C57.626 46.3581 57.625 46.3445 57.625 46.327H58.625ZM58.6168 46.441C58.6177 46.4338 58.625 46.3829 58.625 46.327H57.625C57.625 46.3156 57.6257 46.3075 57.6259 46.3053C57.626 46.3045 57.626 46.3048 57.6257 46.3074C57.6255 46.3087 57.6253 46.3102 57.6251 46.3124C57.6248 46.3143 57.6245 46.3172 57.6241 46.32L58.6168 46.441ZM58.6191 46.4178L58.6193 46.4146L57.6216 46.3464L57.6214 46.3496L58.6191 46.4178ZM58.6164 46.4458L58.6164 46.4457L57.6241 46.3217L57.6241 46.3218L58.6164 46.4458ZM58.5985 46.5828C58.6133 46.512 58.6173 46.4436 58.619 46.4184L57.6214 46.3491C57.6209 46.3574 57.6204 46.3633 57.62 46.369C57.6196 46.3744 57.6192 46.3782 57.6189 46.3809C57.6183 46.387 57.6183 46.385 57.6197 46.3783L58.5985 46.5828ZM58.5878 46.6361C58.5925 46.6152 58.598 46.5894 58.6026 46.5608L57.6156 46.4003C57.6153 46.4018 57.6146 46.4061 57.6125 46.4153L58.5878 46.6361ZM58.5767 46.6828C58.5797 46.6706 58.5838 46.6537 58.5878 46.636L57.6125 46.4153C57.6106 46.4235 57.6085 46.4323 57.6052 46.4459L58.5767 46.6828ZM58.5678 46.7154C58.5688 46.7116 58.5694 46.7094 58.5699 46.708L57.612 46.4206C57.6094 46.4296 57.607 46.4378 57.6052 46.4444L58.5678 46.7154ZM58.5649 46.7255C58.5661 46.7214 58.5669 46.7183 58.5677 46.7154L57.6052 46.4443C57.6037 46.4495 57.6024 46.4544 57.6013 46.4583L58.5649 46.7255ZM58.527 46.8408C58.5476 46.79 58.5606 46.7411 58.565 46.7253L57.6013 46.4584C57.5997 46.4639 57.5988 46.4674 57.5979 46.4706C57.597 46.4736 57.5965 46.4751 57.5963 46.4757C57.5959 46.4772 57.5972 46.4726 57.6005 46.4646L58.527 46.8408ZM40.3588 41.9227H38.0135V42.9227H40.3588V41.9227ZM37.5795 9.02687C40.1792 13.5736 44.9968 25.1126 39.8796 42.2799L40.8379 42.5656C46.0501 25.0798 41.1507 13.2581 38.4476 8.53051L37.5795 9.02687ZM38.5135 42.4227V8.77869H37.5135V42.4227H38.5135ZM36.6991 42.4227V9.02289H35.6991V42.4227H36.6991ZM33.9877 42.9227H36.1991V41.9227H33.9877V42.9227ZM35.7621 8.77988C33.0401 13.6745 28.3973 25.4198 33.5085 42.5656L34.4669 42.2799C29.4488 25.4468 34.0144 13.9801 36.6361 9.2659L35.7621 8.77988ZM54.6982 47.0395L54.6936 47.0546L55.65 47.3467L55.6546 47.3316L54.6982 47.0395ZM55.2432 47.6811L55.2439 47.681L55.109 46.6901L55.1083 46.6902L55.2432 47.6811ZM55.5759 45.4902C55.0144 45.9961 54.8021 46.6972 54.6975 47.0396L55.6539 47.3317C55.7625 46.976 55.9131 46.5324 56.2452 46.2332L55.5759 45.4902ZM42.514 41.896C51.6257 42.3778 54.6302 45.0199 55.5146 46.167L56.3065 45.5564C55.1819 44.0976 51.8495 41.3882 42.5668 40.8974L42.514 41.896ZM42.3669 43.7881C42.6047 43.0232 42.8219 42.2704 43.023 41.5273L42.0577 41.2661C41.8596 41.9983 41.6458 42.7391 41.412 43.4912L42.3669 43.7881ZM41.0253 44.7888C41.6471 44.7888 42.184 44.3755 42.3668 43.7883L41.412 43.491C41.3543 43.6763 41.1927 43.7888 41.0253 43.7888V44.7888ZM33.3185 44.7888H41.0253V43.7888H33.3185V44.7888ZM31.977 43.7882C32.1598 44.3756 32.6968 44.7888 33.3185 44.7888V43.7888C33.151 43.7888 32.9894 43.6762 32.9318 43.4911L31.977 43.7882ZM31.3666 41.6825C31.5559 42.3727 31.7569 43.0735 31.9765 43.7868L32.9322 43.4925C32.7163 42.7912 32.5182 42.1006 32.331 41.418L31.3666 41.6825ZM22.6472 45.2714C23.4305 44.6496 24.3086 43.9908 25.6959 43.4131C27.0887 42.8331 29.0171 42.326 31.8968 42.048L31.8007 41.0526C28.849 41.3376 26.8185 41.8624 25.3115 42.49C23.799 43.1198 22.8366 43.8443 22.0254 44.4882L22.6472 45.2714ZM22.8118 45.1049C22.8187 45.05 22.8252 44.9972 22.8321 44.9442L21.8405 44.8153C21.8332 44.8714 21.8263 44.927 21.8195 44.9814L22.8118 45.1049ZM22.7772 45.3735C22.7901 45.2792 22.8013 45.1898 22.8118 45.1049L21.8195 44.9814C21.8088 45.0671 21.7984 45.1505 21.7865 45.2377L22.7772 45.3735ZM22.5839 47.566C22.5595 47.0638 22.6862 46.0725 22.7777 45.3701L21.786 45.241C21.7006 45.8974 21.5552 47.0002 21.5851 47.6147L22.5839 47.566ZM22.2848 46.616C21.997 47.0144 21.8877 47.1252 21.826 47.1624L22.3431 48.0184C22.6126 47.8555 22.8389 47.5568 23.0955 47.2014L22.2848 46.616ZM22.2893 46.6097L22.2861 46.6141L23.0942 47.2032L23.0974 47.1988L22.2893 46.6097ZM25.0739 44.8963C23.5153 44.8963 22.7448 45.9851 22.2894 46.6096L23.0973 47.1989C23.5713 46.5491 24.0711 45.8963 25.0739 45.8963V44.8963ZM27.8561 46.6096C27.4009 45.9854 26.6305 44.8963 25.0739 44.8963V45.8963C26.0744 45.8963 26.5741 46.5487 27.0482 47.1988L27.8561 46.6096ZM27.8594 46.6141L27.8562 46.6096L27.0482 47.1988L27.0514 47.2033L27.8594 46.6141ZM28.3831 47.1718C28.3444 47.1718 28.3327 47.1672 28.3314 47.1667C28.3302 47.1663 28.3161 47.1616 28.2833 47.1338C28.2004 47.0636 28.084 46.9236 27.8601 46.6151L27.0507 47.2023C27.2624 47.494 27.4465 47.7356 27.6369 47.8969C27.8665 48.0913 28.1049 48.1718 28.3831 48.1718V47.1718ZM28.9068 46.6141C28.6813 46.9233 28.5649 47.0635 28.4817 47.1341C28.4489 47.162 28.435 47.1665 28.4341 47.1668C28.4332 47.1672 28.4218 47.1718 28.3831 47.1718V48.1718C28.6617 48.1718 28.8996 48.0911 29.1288 47.8966C29.3184 47.7357 29.5025 47.4944 29.7148 47.2033L28.9068 46.6141ZM28.91 46.6096L28.9068 46.6141L29.7148 47.2033L29.718 47.1988L28.91 46.6096ZM31.6946 44.8963C30.1359 44.8963 29.3655 45.9851 28.9101 46.6096L29.718 47.1989C30.1919 46.5491 30.6917 45.8963 31.6946 45.8963V44.8963ZM34.4768 46.6096C34.0216 45.9854 33.2511 44.8963 31.6946 44.8963V45.8963C32.695 45.8963 33.1947 46.5487 33.6688 47.1988L34.4768 46.6096ZM34.4801 46.6141L34.4768 46.6096L33.6688 47.1988L33.6721 47.2033L34.4801 46.6141ZM35.0038 47.1718C34.966 47.1718 34.9549 47.1673 34.954 47.1669C34.953 47.1666 34.9388 47.1619 34.9056 47.1338C34.8222 47.0632 34.7051 46.9226 34.4801 46.6141L33.6721 47.2033C33.8848 47.495 34.0694 47.736 34.2593 47.8969C34.4881 48.0907 34.7257 48.1718 35.0038 48.1718V47.1718ZM35.5274 46.6141C35.302 46.9233 35.1856 47.0635 35.1024 47.1341C35.0695 47.162 35.0556 47.1665 35.0547 47.1668C35.0538 47.1672 35.0425 47.1718 35.0038 47.1718V48.1718C35.2823 48.1718 35.5203 48.0911 35.7495 47.8966C35.939 47.7357 36.1232 47.4944 36.3354 47.2033L35.5274 46.6141ZM38.313 44.8963C36.7506 44.8963 35.9803 45.9902 35.5268 46.615L36.3361 47.2024C36.808 46.5521 37.3079 45.8963 38.313 45.8963V44.8963ZM41.0952 46.6096C40.6399 45.9854 39.8695 44.8963 38.313 44.8963V45.8963C39.3134 45.8963 39.8131 46.5487 40.2872 47.1988L41.0952 46.6096ZM41.0985 46.6141L41.0952 46.6096L40.2872 47.1988L40.2905 47.2033L41.0985 46.6141ZM41.6244 47.1742C41.5857 47.1742 41.5741 47.1696 41.5729 47.1691C41.5716 47.1687 41.5574 47.164 41.5244 47.136C41.441 47.0653 41.3241 46.9246 41.099 46.6148L40.2899 47.2025C40.5027 47.4954 40.6873 47.7374 40.8779 47.8989C41.1076 48.0936 41.346 48.1742 41.6244 48.1742V47.1742ZM42.1481 46.6165C41.9226 46.9257 41.8062 47.0659 41.723 47.1365C41.6902 47.1644 41.6763 47.1689 41.6754 47.1692C41.6745 47.1696 41.6631 47.1742 41.6244 47.1742V48.1742C41.903 48.1742 42.1409 48.0935 42.3701 47.8989C42.5597 47.738 42.7438 47.4967 42.9561 47.2057L42.1481 46.6165ZM42.1512 46.6121L42.148 46.6166L42.9562 47.2055L42.9594 47.2011L42.1512 46.6121ZM44.9359 44.8987C43.3772 44.8987 42.6068 45.9875 42.1514 46.612L42.9593 47.2012C43.4332 46.5515 43.933 45.8987 44.9359 45.8987V44.8987ZM47.7181 46.6119C47.2629 45.9878 46.4924 44.8987 44.9359 44.8987V45.8987C45.9363 45.8987 46.436 46.5511 46.9101 47.2012L47.7181 46.6119ZM47.7214 46.6165L47.7181 46.612L46.9101 47.2012L46.9134 47.2057L47.7214 46.6165ZM48.2451 47.1742C48.2063 47.1742 48.1947 47.1696 48.1934 47.1691C48.1922 47.1686 48.178 47.164 48.1452 47.1362C48.0623 47.066 47.946 46.926 47.7221 46.6174L46.9127 47.2047C47.1243 47.4964 47.3085 47.738 47.4989 47.8993C47.7285 48.0937 47.9669 48.1742 48.2451 48.1742V47.1742ZM48.7705 46.6148C48.5454 46.9246 48.4284 47.0653 48.3451 47.136C48.3121 47.164 48.2978 47.1687 48.2966 47.1691C48.2954 47.1696 48.2838 47.1742 48.2451 47.1742V48.1742C48.5235 48.1742 48.7619 48.0936 48.9916 47.8989C49.1822 47.7374 49.3668 47.4954 49.5795 47.2025L48.7705 46.6148ZM51.5565 44.8963C49.9966 44.8963 49.224 45.9899 48.7704 46.615L49.5797 47.2024C50.0514 46.5524 50.5536 45.8963 51.5565 45.8963V44.8963ZM54.341 46.6096C53.8856 45.9851 53.1152 44.8963 51.5565 44.8963V45.8963C52.5594 45.8963 53.0592 46.549 53.5331 47.1988L54.341 46.6096ZM54.3442 46.614L54.341 46.6095L53.5331 47.1989L53.5364 47.2034L54.3442 46.614ZM54.868 47.1718C54.8302 47.1718 54.8192 47.1673 54.8182 47.1669C54.8172 47.1666 54.803 47.1619 54.7698 47.1338C54.6864 47.0632 54.5693 46.9226 54.3443 46.6141L53.5363 47.2033C53.7491 47.495 53.9336 47.736 54.1235 47.8969C54.3524 48.0907 54.59 48.1718 54.868 48.1718V47.1718ZM55.0063 47.6555C54.8016 47.1994 54.8018 47.1993 54.8021 47.1991C54.8022 47.1991 54.8024 47.199 54.8025 47.1989C54.8028 47.1988 54.8032 47.1987 54.8035 47.1985C54.8041 47.1982 54.8047 47.198 54.8053 47.1977C54.8065 47.1972 54.8078 47.1966 54.809 47.1961C54.8114 47.1951 54.8138 47.1941 54.8161 47.1931C54.8208 47.1912 54.8252 47.1895 54.8295 47.1879C54.8381 47.1846 54.846 47.182 54.853 47.1799C54.8669 47.1756 54.8774 47.1733 54.8838 47.1721C54.8962 47.1698 54.8927 47.1718 54.868 47.1718V48.1718C54.9453 48.1718 55.011 48.1657 55.0671 48.1552C55.0953 48.1499 55.1212 48.1436 55.1452 48.1362C55.1572 48.1326 55.1686 48.1287 55.1796 48.1246C55.1851 48.1225 55.1905 48.1204 55.1957 48.1183C55.1983 48.1172 55.2009 48.1161 55.2035 48.115C55.2048 48.1145 55.206 48.1139 55.2073 48.1134C55.2079 48.1131 55.2086 48.1128 55.2092 48.1125C55.2095 48.1124 55.2098 48.1122 55.2101 48.1121C55.2103 48.112 55.2105 48.1119 55.2106 48.1119C55.2108 48.1118 55.2111 48.1117 55.0063 47.6555ZM54.6936 47.0546C54.6691 47.1349 54.6407 47.2278 54.6138 47.3061C54.6002 47.3456 54.5895 47.3743 54.582 47.3921C54.5783 47.4011 54.5776 47.4019 54.5799 47.3974C54.5812 47.3949 54.5847 47.3883 54.5904 47.3791C54.5956 47.3708 54.6066 47.3539 54.6238 47.3335L55.3888 47.9775C55.4549 47.8991 55.4928 47.806 55.5041 47.7792C55.524 47.7316 55.5431 47.6791 55.5597 47.6307C55.5931 47.5333 55.6265 47.4236 55.65 47.3466L54.6936 47.0546Z" fill="#222532"/>
<path d="M7.61466 34.177C7.49899 34.035 6.4466 32.7996 5.09936 32.7996C4.47565 32.7996 3.58426 33.0625 2.88344 34.3119L2.10092 35.708H8.87109L7.61466 34.177Z" fill="white" stroke="#222532"/>
<path fill-rule="evenodd" clip-rule="evenodd" d="M5.85505 37.5482L6.78726 37.6483L6.66935 38.6022C6.32684 41.1802 3.67771 43.9001 3.56431 44.0164L2.33726 45.2636L2.03334 43.5186C1.67271 41.4664 1.929 39.8889 2.79315 38.8302C4.00203 37.3481 5.85505 37.5482 5.85505 37.5482ZM4.18802 40.0239C4.02699 40.2193 3.90678 40.4683 3.82286 40.7615L3.82287 40.7615C4.01565 40.466 4.20163 40.1565 4.3604 39.8447C4.30143 39.8982 4.24246 39.9564 4.18802 40.0239Z" fill="white"/>
<path d="M6.78726 37.6483L7.28348 37.7096L7.34581 37.2054L6.84061 37.1511L6.78726 37.6483ZM5.85505 37.5482L5.80137 38.0453L5.8017 38.0454L5.85505 37.5482ZM6.66935 38.6022L7.16502 38.6681L7.16558 38.6635L6.66935 38.6022ZM3.56431 44.0164L3.92073 44.3671L3.92235 44.3655L3.56431 44.0164ZM2.33726 45.2636L1.84468 45.3494L2.01156 46.3076L2.69368 45.6143L2.33726 45.2636ZM2.03334 43.5186L2.52592 43.4328L2.52579 43.432L2.03334 43.5186ZM2.79315 38.8302L3.18049 39.1464L3.18061 39.1463L2.79315 38.8302ZM3.82286 40.7615L3.34217 40.6239L3.28924 40.8088L3.37386 40.9815L3.82286 40.7615ZM4.18802 40.0239L4.57394 40.3418L4.57718 40.3378L4.18802 40.0239ZM3.82287 40.7615L3.37387 40.9815L3.76095 41.7714L4.24162 41.0347L3.82287 40.7615ZM4.3604 39.8447L4.80596 40.0716L4.02441 39.4744L4.3604 39.8447ZM6.84061 37.1511L5.90841 37.0511L5.8017 38.0454L6.7339 38.1454L6.84061 37.1511ZM7.16558 38.6635L7.28348 37.7096L6.29103 37.5869L6.17313 38.5409L7.16558 38.6635ZM3.92235 44.3655C3.98729 44.2988 4.69823 43.5685 5.43911 42.5212C6.17094 41.4867 6.97733 40.0806 7.165 38.6681L6.17371 38.5364C6.01886 39.7018 5.32944 40.9447 4.62273 41.9437C3.92506 42.9299 3.25473 43.6177 3.20628 43.6674L3.92235 44.3655ZM2.69368 45.6143L3.92072 44.3671L3.2079 43.6658L1.98085 44.9129L2.69368 45.6143ZM1.54075 43.6043L1.84468 45.3494L2.82985 45.1778L2.52592 43.4328L1.54075 43.6043ZM2.40581 38.514C1.41051 39.7333 1.16832 41.485 1.54088 43.6051L2.52579 43.432C2.17709 41.4478 2.44748 40.0444 3.18049 39.1464L2.40581 38.514ZM5.85505 37.5482C5.90873 37.0511 5.90852 37.0511 5.90829 37.0511C5.90821 37.0511 5.90798 37.051 5.90781 37.051C5.90748 37.051 5.90711 37.0509 5.90672 37.0509C5.90593 37.0508 5.90502 37.0507 5.90401 37.0506C5.90197 37.0504 5.89948 37.0502 5.89654 37.0499C5.89067 37.0493 5.883 37.0487 5.87362 37.0479C5.85487 37.0464 5.82923 37.0447 5.79734 37.0431C5.73361 37.04 5.64455 37.0378 5.53521 37.0403C5.3172 37.0452 5.01481 37.0692 4.66994 37.1451C3.9804 37.2969 3.10107 37.6616 2.40569 38.5142L3.18061 39.1463C3.6941 38.5167 4.34573 38.2404 4.88492 38.1218C5.15442 38.0624 5.39084 38.0438 5.55804 38.04C5.64132 38.0381 5.70647 38.0399 5.7488 38.0419C5.76994 38.043 5.7853 38.0441 5.79428 38.0448C5.79876 38.0451 5.80165 38.0454 5.80286 38.0455C5.80347 38.0456 5.80365 38.0456 5.80341 38.0456C5.80328 38.0455 5.80305 38.0455 5.80272 38.0455C5.80255 38.0455 5.80235 38.0454 5.80213 38.0454C5.80201 38.0454 5.80183 38.0454 5.80177 38.0454C5.80158 38.0454 5.80137 38.0453 5.85505 37.5482ZM4.30355 40.8991C4.37392 40.6532 4.46736 40.4712 4.57391 40.3418L3.80213 39.7059C3.58661 39.9675 3.43964 40.2833 3.34217 40.6239L4.30355 40.8991ZM4.27186 40.5415L4.27185 40.5415L3.37386 40.9815L3.37387 40.9815L4.27186 40.5415ZM3.91485 39.6178C3.76656 39.909 3.5905 40.2026 3.40411 40.4883L4.24162 41.0347C4.44081 40.7294 4.63671 40.404 4.80596 40.0716L3.91485 39.6178ZM4.57718 40.3378C4.60926 40.2981 4.64767 40.2592 4.69639 40.215L4.02441 39.4744C3.95518 39.5373 3.87566 39.6148 3.79887 39.7099L4.57718 40.3378Z" fill="#222532"/>
<path fill-rule="evenodd" clip-rule="evenodd" d="M12.8402 32.3686C12.8402 33.3412 12.0668 34.1322 11.1188 34.1322C10.1707 34.1322 9.3996 33.3412 9.3996 32.3686C9.3996 31.396 10.1707 30.605 11.1188 30.605C12.0691 30.605 12.8402 31.396 12.8402 32.3686ZM11.2141 32.3686C11.2141 32.3151 11.171 32.2709 11.1188 32.2709C11.0666 32.2709 11.0258 32.3151 11.0258 32.3686C11.0258 32.4756 11.2141 32.4756 11.2141 32.3686Z" fill="white"/>
<path d="M11.1188 34.6322C12.3541 34.6322 13.3402 33.6061 13.3402 32.3686H12.3402C12.3402 33.0763 11.7796 33.6322 11.1188 33.6322V34.6322ZM8.8996 32.3686C8.8996 33.6052 9.88264 34.6322 11.1188 34.6322V33.6322C10.4588 33.6322 9.8996 33.0771 9.8996 32.3686H8.8996ZM11.1188 30.105C9.88264 30.105 8.8996 31.132 8.8996 32.3686H9.8996C9.8996 31.6601 10.4588 31.105 11.1188 31.105V30.105ZM13.3402 32.3686C13.3402 31.1316 12.3568 30.105 11.1188 30.105V31.105C11.7814 31.105 12.3402 31.6605 12.3402 32.3686H13.3402ZM11.1188 32.7709C10.8829 32.7709 10.7141 32.5791 10.7141 32.3686H11.7141C11.7141 32.051 11.4591 31.7709 11.1188 31.7709V32.7709ZM11.5258 32.3686C11.5258 32.5631 11.3701 32.7709 11.1188 32.7709V31.7709C10.7632 31.7709 10.5258 32.067 10.5258 32.3686H11.5258ZM10.7141 32.3686C10.7141 32.2294 10.7833 32.1056 10.8826 32.0303C10.9679 31.9657 11.0564 31.9489 11.1199 31.9489C11.1835 31.9489 11.272 31.9657 11.3573 32.0303C11.4566 32.1056 11.5258 32.2294 11.5258 32.3686H10.5258C10.5258 32.5613 10.6186 32.7252 10.7532 32.8273C10.8738 32.9187 11.0093 32.9489 11.1199 32.9489C11.2306 32.9489 11.3661 32.9187 11.4867 32.8273C11.6213 32.7252 11.7141 32.5613 11.7141 32.3686H10.7141Z" fill="#222532"/>
</g>
<defs>
<clipPath id="clip0_1220_2">
<rect width="60" height="50" fill="white"/>
</clipPath>
</defs>
</svg>
